solid simple-spool-bracket
facet normal -0.0 -0.13052619222005044 -0.9914448613738107
  outer loop
    vertex 4000.0 26776.45713530756 10397.777478867205
    vertex -1.4438228390645235e-12 25999.999999999996 10499.999999999998
    vertex -1.4438228390645235e-12 26776.45713530756 10397.777478867205
  endloop
endfacet
facet normal -0.0 -0.13052619222005044 -0.9914448613738107
  outer loop
    vertex -1.4438228390645235e-12 25999.999999999996 10499.999999999998
    vertex 4000.0 26776.45713530756 10397.777478867205
    vertex 4000.0 25999.999999999996 10499.999999999998
  endloop
endfacet
facet normal -0.0 -0.9238795325112844 -0.3826834323650957
  outer loop
    vertex 4000.0 28598.07621135331 9000.0
    vertex -1.4438228390645235e-12 28897.7774788672 8276.457135307564
    vertex 4000.0 28897.7774788672 8276.457135307564
  endloop
endfacet
facet normal -0.0 -0.9238795325112844 -0.3826834323650957
  outer loop
    vertex -1.4438228390645235e-12 28897.7774788672 8276.457135307564
    vertex 4000.0 28598.07621135331 9000.0
    vertex -1.4438228390645235e-12 28598.07621135331 9000.0
  endloop
endfacet
facet normal -0.0 -0.7933533402912369 -0.6087614290087187
  outer loop
    vertex 4000.0 28121.320343559637 9621.32034355964
    vertex -1.4438228390645235e-12 28598.07621135331 9000.0
    vertex 4000.0 28598.07621135331 9000.0
  endloop
endfacet
facet normal -0.0 -0.7933533402912369 -0.6087614290087187
  outer loop
    vertex -1.4438228390645235e-12 28598.07621135331 9000.0
    vertex 4000.0 28121.320343559637 9621.32034355964
    vertex -1.4438228390645235e-12 28121.320343559637 9621.32034355964
  endloop
endfacet
facet normal -0.0 -0.6087614290087214 -0.7933533402912346
  outer loop
    vertex 4000.0 28121.320343559637 9621.32034355964
    vertex -1.4438228390645235e-12 27499.999999999996 10098.076211353316
    vertex -1.4438228390645235e-12 28121.320343559637 9621.32034355964
  endloop
endfacet
facet normal -0.0 -0.6087614290087214 -0.7933533402912346
  outer loop
    vertex -1.4438228390645235e-12 27499.999999999996 10098.076211353316
    vertex 4000.0 28121.320343559637 9621.32034355964
    vertex 4000.0 27499.999999999996 10098.076211353316
  endloop
endfacet
facet normal -0.0 -0.9914448613738109 -0.13052619222004835
  outer loop
    vertex 4000.0 28897.7774788672 8276.457135307564
    vertex -1.4438228390645235e-12 28999.999999999993 7499.999999999999
    vertex 4000.0 28999.999999999993 7499.999999999999
  endloop
endfacet
facet normal -0.0 -0.9914448613738109 -0.13052619222004835
  outer loop
    vertex -1.4438228390645235e-12 28999.999999999993 7499.999999999999
    vertex 4000.0 28897.7774788672 8276.457135307564
    vertex -1.4438228390645235e-12 28897.7774788672 8276.457135307564
  endloop
endfacet
facet normal -0.0 -0.38268343236508945 0.923879532511287
  outer loop
    vertex 4000.0 26776.45713530756 4602.222521132796
    vertex -1.4438228390645235e-12 27499.999999999996 4901.923788646684
    vertex -1.4438228390645235e-12 26776.45713530756 4602.222521132796
  endloop
endfacet
facet normal -0.0 -0.38268343236508945 0.923879532511287
  outer loop
    vertex -1.4438228390645235e-12 27499.999999999996 4901.923788646684
    vertex 4000.0 26776.45713530756 4602.222521132796
    vertex 4000.0 27499.999999999996 4901.923788646684
  endloop
endfacet
facet normal -0.0 -0.9914448613738108 0.13052619222004883
  outer loop
    vertex 4000.0 28999.999999999993 7499.999999999999
    vertex -1.4438228390645235e-12 28897.7774788672 6723.542864692437
    vertex 4000.0 28897.7774788672 6723.542864692437
  endloop
endfacet
facet normal -0.0 -0.9914448613738108 0.13052619222004883
  outer loop
    vertex -1.4438228390645235e-12 28897.7774788672 6723.542864692437
    vertex 4000.0 28999.999999999993 7499.999999999999
    vertex -1.4438228390645235e-12 28999.999999999993 7499.999999999999
  endloop
endfacet
facet normal -0.0 -0.7933533402912339 0.6087614290087224
  outer loop
    vertex 4000.0 28598.076211353313 6000.0
    vertex -1.4438228390645235e-12 28121.320343559637 5378.679656440358
    vertex 4000.0 28121.320343559637 5378.679656440358
  endloop
endfacet
facet normal -0.0 -0.7933533402912339 0.6087614290087224
  outer loop
    vertex -1.4438228390645235e-12 28121.320343559637 5378.679656440358
    vertex 4000.0 28598.076211353313 6000.0
    vertex -1.4438228390645235e-12 28598.076211353313 6000.0
  endloop
endfacet
facet normal -0.0 -0.9238795325112872 0.3826834323650888
  outer loop
    vertex 4000.0 28897.7774788672 6723.542864692437
    vertex -1.4438228390645235e-12 28598.076211353313 6000.0
    vertex 4000.0 28598.076211353313 6000.0
  endloop
endfacet
facet normal -0.0 -0.9238795325112872 0.3826834323650888
  outer loop
    vertex -1.4438228390645235e-12 28598.076211353313 6000.0
    vertex 4000.0 28897.7774788672 6723.542864692437
    vertex -1.4438228390645235e-12 28897.7774788672 6723.542864692437
  endloop
endfacet
facet normal -0.0 -0.13052619222005224 0.9914448613738105
  outer loop
    vertex 4000.0 25999.999999999996 4500.0
    vertex -1.4438228390645235e-12 26776.45713530756 4602.222521132796
    vertex -1.4438228390645235e-12 25999.999999999996 4500.0
  endloop
endfacet
facet normal -0.0 -0.13052619222005224 0.9914448613738105
  outer loop
    vertex -1.4438228390645235e-12 26776.45713530756 4602.222521132796
    vertex 4000.0 25999.999999999996 4500.0
    vertex 4000.0 26776.45713530756 4602.222521132796
  endloop
endfacet
facet normal -0.0 -0.6087614290087203 0.7933533402912355
  outer loop
    vertex 4000.0 27499.999999999996 4901.923788646684
    vertex -1.4438228390645235e-12 28121.320343559637 5378.679656440358
    vertex -1.4438228390645235e-12 27499.999999999996 4901.923788646684
  endloop
endfacet
facet normal -0.0 -0.6087614290087203 0.7933533402912355
  outer loop
    vertex -1.4438228390645235e-12 28121.320343559637 5378.679656440358
    vertex 4000.0 27499.999999999996 4901.923788646684
    vertex 4000.0 28121.320343559637 5378.679656440358
  endloop
endfacet
facet normal -0.0 0.13052619222005224 -0.9914448613738105
  outer loop
    vertex 4000.0 25999.999999999996 10499.999999999998
    vertex -1.4438228390645235e-12 25223.54286469243 10397.777478867203
    vertex -1.4438228390645235e-12 25999.999999999996 10499.999999999998
  endloop
endfacet
facet normal -0.0 0.13052619222005224 -0.9914448613738105
  outer loop
    vertex -1.4438228390645235e-12 25223.54286469243 10397.777478867203
    vertex 4000.0 25999.999999999996 10499.999999999998
    vertex 4000.0 25223.54286469243 10397.777478867203
  endloop
endfacet
facet normal 0.0 0.9914448613738105 0.13052619222005224
  outer loop
    vertex -1.4438228390645235e-12 22999.999999999996 7499.999999999999
    vertex 4000.0 23102.222521132793 6723.5428646924365
    vertex -1.4438228390645235e-12 23102.222521132793 6723.5428646924365
  endloop
endfacet
facet normal 0.0 0.9914448613738105 0.13052619222005224
  outer loop
    vertex 4000.0 23102.222521132793 6723.5428646924365
    vertex -1.4438228390645235e-12 22999.999999999996 7499.999999999999
    vertex 4000.0 22999.999999999996 7499.999999999999
  endloop
endfacet
facet normal 0.0 0.9238795325112872 0.3826834323650888
  outer loop
    vertex -1.4438228390645235e-12 23102.222521132793 6723.5428646924365
    vertex 4000.0 23401.92378864668 5999.999999999998
    vertex -1.4438228390645235e-12 23401.92378864668 5999.999999999998
  endloop
endfacet
facet normal 0.0 0.9238795325112872 0.3826834323650888
  outer loop
    vertex 4000.0 23401.92378864668 5999.999999999998
    vertex -1.4438228390645235e-12 23102.222521132793 6723.5428646924365
    vertex 4000.0 23102.222521132793 6723.5428646924365
  endloop
endfacet
facet normal 0.0 0.793353340291235 0.6087614290087209
  outer loop
    vertex -1.4438228390645235e-12 23401.92378864668 5999.999999999998
    vertex 4000.0 23878.679656440352 5378.679656440358
    vertex -1.4438228390645235e-12 23878.679656440352 5378.679656440358
  endloop
endfacet
facet normal 0.0 0.793353340291235 0.6087614290087209
  outer loop
    vertex 4000.0 23878.679656440352 5378.679656440358
    vertex -1.4438228390645235e-12 23401.92378864668 5999.999999999998
    vertex 4000.0 23401.92378864668 5999.999999999998
  endloop
endfacet
facet normal 0.0 0.6087614290087203 0.7933533402912355
  outer loop
    vertex 4000.0 23878.679656440352 5378.679656440358
    vertex -1.4438228390645235e-12 24499.999999999996 4901.923788646684
    vertex -1.4438228390645235e-12 23878.679656440352 5378.679656440358
  endloop
endfacet
facet normal 0.0 0.6087614290087203 0.7933533402912355
  outer loop
    vertex -1.4438228390645235e-12 24499.999999999996 4901.923788646684
    vertex 4000.0 23878.679656440352 5378.679656440358
    vertex 4000.0 24499.999999999996 4901.923788646684
  endloop
endfacet
facet normal 0.0 0.3826834323650903 0.9238795325112867
  outer loop
    vertex 4000.0 24499.999999999996 4901.923788646684
    vertex -1.4438228390645235e-12 25223.54286469243 4602.222521132795
    vertex -1.4438228390645235e-12 24499.999999999996 4901.923788646684
  endloop
endfacet
facet normal 0.0 0.3826834323650903 0.9238795325112867
  outer loop
    vertex -1.4438228390645235e-12 25223.54286469243 4602.222521132795
    vertex 4000.0 24499.999999999996 4901.923788646684
    vertex 4000.0 25223.54286469243 4602.222521132795
  endloop
endfacet
facet normal 0.0 0.13052619222005132 0.9914448613738105
  outer loop
    vertex 4000.0 25223.54286469243 4602.222521132795
    vertex -1.4438228390645235e-12 25999.999999999996 4500.0
    vertex -1.4438228390645235e-12 25223.54286469243 4602.222521132795
  endloop
endfacet
facet normal 0.0 0.13052619222005132 0.9914448613738105
  outer loop
    vertex -1.4438228390645235e-12 25999.999999999996 4500.0
    vertex 4000.0 25223.54286469243 4602.222521132795
    vertex 4000.0 25999.999999999996 4500.0
  endloop
endfacet
facet normal -0.0 -0.7933533402912369 -0.6087614290087187
  outer loop
    vertex 23000.0 28121.320343559637 9621.32034355964
    vertex 19000.000000000004 28598.07621135331 9000.0
    vertex 23000.0 28598.07621135331 9000.0
  endloop
endfacet
facet normal -0.0 -0.7933533402912369 -0.6087614290087187
  outer loop
    vertex 19000.000000000004 28598.07621135331 9000.0
    vertex 23000.0 28121.320343559637 9621.32034355964
    vertex 19000.000000000004 28121.320343559637 9621.32034355964
  endloop
endfacet
facet normal -0.0 -0.38268343236508945 -0.923879532511287
  outer loop
    vertex 23000.0 27499.999999999996 10098.076211353316
    vertex 19000.000000000004 26776.45713530756 10397.777478867205
    vertex 19000.000000000004 27499.999999999996 10098.076211353316
  endloop
endfacet
facet normal -0.0 -0.38268343236508945 -0.923879532511287
  outer loop
    vertex 19000.000000000004 26776.45713530756 10397.777478867205
    vertex 23000.0 27499.999999999996 10098.076211353316
    vertex 23000.0 26776.45713530756 10397.777478867205
  endloop
endfacet
facet normal 0.0 0.3826834323650903 0.9238795325112867
  outer loop
    vertex 23000.0 24499.999999999996 4901.923788646684
    vertex 19000.000000000004 25223.54286469243 4602.222521132795
    vertex 19000.000000000004 24499.999999999996 4901.923788646684
  endloop
endfacet
facet normal 0.0 0.3826834323650903 0.9238795325112867
  outer loop
    vertex 19000.000000000004 25223.54286469243 4602.222521132795
    vertex 23000.0 24499.999999999996 4901.923788646684
    vertex 23000.0 25223.54286469243 4602.222521132795
  endloop
endfacet
facet normal -0.0 -0.6087614290087214 -0.7933533402912346
  outer loop
    vertex 23000.0 28121.320343559637 9621.32034355964
    vertex 19000.000000000004 27499.999999999996 10098.076211353316
    vertex 19000.000000000004 28121.320343559637 9621.32034355964
  endloop
endfacet
facet normal -0.0 -0.6087614290087214 -0.7933533402912346
  outer loop
    vertex 19000.000000000004 27499.999999999996 10098.076211353316
    vertex 23000.0 28121.320343559637 9621.32034355964
    vertex 23000.0 27499.999999999996 10098.076211353316
  endloop
endfacet
facet normal -0.0 0.38268343236509106 -0.9238795325112864
  outer loop
    vertex 23000.0 25223.54286469243 10397.777478867203
    vertex 19000.000000000004 24499.999999999996 10098.076211353313
    vertex 19000.000000000004 25223.54286469243 10397.777478867203
  endloop
endfacet
facet normal -0.0 0.38268343236509106 -0.9238795325112864
  outer loop
    vertex 19000.000000000004 24499.999999999996 10098.076211353313
    vertex 23000.0 25223.54286469243 10397.777478867203
    vertex 23000.0 24499.999999999996 10098.076211353313
  endloop
endfacet
facet normal 0.0 0.13052619222005132 0.9914448613738105
  outer loop
    vertex 23000.0 25223.54286469243 4602.222521132795
    vertex 19000.000000000004 25999.999999999996 4500.0
    vertex 19000.000000000004 25223.54286469243 4602.222521132795
  endloop
endfacet
facet normal 0.0 0.13052619222005132 0.9914448613738105
  outer loop
    vertex 19000.000000000004 25999.999999999996 4500.0
    vertex 23000.0 25223.54286469243 4602.222521132795
    vertex 23000.0 25999.999999999996 4500.0
  endloop
endfacet
facet normal -0.0 -0.13052619222005044 -0.9914448613738107
  outer loop
    vertex 23000.0 26776.45713530756 10397.777478867205
    vertex 19000.000000000004 25999.999999999996 10499.999999999998
    vertex 19000.000000000004 26776.45713530756 10397.777478867205
  endloop
endfacet
facet normal -0.0 -0.13052619222005044 -0.9914448613738107
  outer loop
    vertex 19000.000000000004 25999.999999999996 10499.999999999998
    vertex 23000.0 26776.45713530756 10397.777478867205
    vertex 23000.0 25999.999999999996 10499.999999999998
  endloop
endfacet
facet normal -0.0 -0.9914448613738109 -0.13052619222004835
  outer loop
    vertex 23000.0 28897.7774788672 8276.457135307564
    vertex 19000.000000000004 28999.999999999993 7499.999999999999
    vertex 23000.0 28999.999999999993 7499.999999999999
  endloop
endfacet
facet normal -0.0 -0.9914448613738109 -0.13052619222004835
  outer loop
    vertex 19000.000000000004 28999.999999999993 7499.999999999999
    vertex 23000.0 28897.7774788672 8276.457135307564
    vertex 19000.000000000004 28897.7774788672 8276.457135307564
  endloop
endfacet
facet normal 0.0 0.9238795325112872 0.3826834323650888
  outer loop
    vertex 19000.000000000004 23102.222521132793 6723.5428646924365
    vertex 23000.0 23401.92378864668 5999.999999999998
    vertex 19000.000000000004 23401.92378864668 5999.999999999998
  endloop
endfacet
facet normal 0.0 0.9238795325112872 0.3826834323650888
  outer loop
    vertex 23000.0 23401.92378864668 5999.999999999998
    vertex 19000.000000000004 23102.222521132793 6723.5428646924365
    vertex 23000.0 23102.222521132793 6723.5428646924365
  endloop
endfacet
facet normal -0.0 -0.9238795325112844 -0.3826834323650957
  outer loop
    vertex 23000.0 28598.07621135331 9000.0
    vertex 19000.000000000004 28897.7774788672 8276.457135307564
    vertex 23000.0 28897.7774788672 8276.457135307564
  endloop
endfacet
facet normal -0.0 -0.9238795325112844 -0.3826834323650957
  outer loop
    vertex 19000.000000000004 28897.7774788672 8276.457135307564
    vertex 23000.0 28598.07621135331 9000.0
    vertex 19000.000000000004 28598.07621135331 9000.0
  endloop
endfacet
facet normal -0.0 0.9914448613738103 -0.13052619222005268
  outer loop
    vertex 19000.000000000004 23102.222521132793 8276.457135307559
    vertex 23000.0 22999.999999999996 7499.999999999999
    vertex 19000.000000000004 22999.999999999996 7499.999999999999
  endloop
endfacet
facet normal -0.0 0.9914448613738103 -0.13052619222005268
  outer loop
    vertex 23000.0 22999.999999999996 7499.999999999999
    vertex 19000.000000000004 23102.222521132793 8276.457135307559
    vertex 23000.0 23102.222521132793 8276.457135307559
  endloop
endfacet
facet normal 0.0 0.6087614290087203 0.7933533402912355
  outer loop
    vertex 23000.0 23878.679656440352 5378.679656440358
    vertex 19000.000000000004 24499.999999999996 4901.923788646684
    vertex 19000.000000000004 23878.679656440352 5378.679656440358
  endloop
endfacet
facet normal 0.0 0.6087614290087203 0.7933533402912355
  outer loop
    vertex 19000.000000000004 24499.999999999996 4901.923788646684
    vertex 23000.0 23878.679656440352 5378.679656440358
    vertex 23000.0 24499.999999999996 4901.923788646684
  endloop
endfacet
facet normal -0.0 0.9238795325112872 -0.3826834323650888
  outer loop
    vertex 19000.000000000004 23401.92378864668 8999.999999999998
    vertex 23000.0 23102.222521132793 8276.457135307559
    vertex 19000.000000000004 23102.222521132793 8276.457135307559
  endloop
endfacet
facet normal -0.0 0.9238795325112872 -0.3826834323650888
  outer loop
    vertex 23000.0 23102.222521132793 8276.457135307559
    vertex 19000.000000000004 23401.92378864668 8999.999999999998
    vertex 23000.0 23401.92378864668 8999.999999999998
  endloop
endfacet
facet normal -0.0 -0.13052619222005224 0.9914448613738105
  outer loop
    vertex 23000.0 25999.999999999996 4500.0
    vertex 19000.000000000004 26776.45713530756 4602.222521132796
    vertex 19000.000000000004 25999.999999999996 4500.0
  endloop
endfacet
facet normal -0.0 -0.13052619222005224 0.9914448613738105
  outer loop
    vertex 19000.000000000004 26776.45713530756 4602.222521132796
    vertex 23000.0 25999.999999999996 4500.0
    vertex 23000.0 26776.45713530756 4602.222521132796
  endloop
endfacet
facet normal -0.0 -0.38268343236508945 0.923879532511287
  outer loop
    vertex 23000.0 26776.45713530756 4602.222521132796
    vertex 19000.000000000004 27499.999999999996 4901.923788646684
    vertex 19000.000000000004 26776.45713530756 4602.222521132796
  endloop
endfacet
facet normal -0.0 -0.38268343236508945 0.923879532511287
  outer loop
    vertex 19000.000000000004 27499.999999999996 4901.923788646684
    vertex 23000.0 26776.45713530756 4602.222521132796
    vertex 23000.0 27499.999999999996 4901.923788646684
  endloop
endfacet
facet normal -0.0 -0.6087614290087203 0.7933533402912355
  outer loop
    vertex 23000.0 27499.999999999996 4901.923788646684
    vertex 19000.000000000004 28121.320343559637 5378.679656440358
    vertex 19000.000000000004 27499.999999999996 4901.923788646684
  endloop
endfacet
facet normal -0.0 -0.6087614290087203 0.7933533402912355
  outer loop
    vertex 19000.000000000004 28121.320343559637 5378.679656440358
    vertex 23000.0 27499.999999999996 4901.923788646684
    vertex 23000.0 28121.320343559637 5378.679656440358
  endloop
endfacet
facet normal 0.0 0.793353340291235 0.6087614290087209
  outer loop
    vertex 19000.000000000004 23401.92378864668 5999.999999999998
    vertex 23000.0 23878.679656440352 5378.679656440358
    vertex 19000.000000000004 23878.679656440352 5378.679656440358
  endloop
endfacet
facet normal 0.0 0.793353340291235 0.6087614290087209
  outer loop
    vertex 23000.0 23878.679656440352 5378.679656440358
    vertex 19000.000000000004 23401.92378864668 5999.999999999998
    vertex 23000.0 23401.92378864668 5999.999999999998
  endloop
endfacet
facet normal -0.0 -0.7933533402912339 0.6087614290087224
  outer loop
    vertex 23000.0 28598.076211353313 6000.0
    vertex 19000.000000000004 28121.320343559637 5378.679656440358
    vertex 23000.0 28121.320343559637 5378.679656440358
  endloop
endfacet
facet normal -0.0 -0.7933533402912339 0.6087614290087224
  outer loop
    vertex 19000.000000000004 28121.320343559637 5378.679656440358
    vertex 23000.0 28598.076211353313 6000.0
    vertex 19000.000000000004 28598.076211353313 6000.0
  endloop
endfacet
facet normal -0.0 -0.9238795325112872 0.3826834323650888
  outer loop
    vertex 23000.0 28897.7774788672 6723.542864692437
    vertex 19000.000000000004 28598.076211353313 6000.0
    vertex 23000.0 28598.076211353313 6000.0
  endloop
endfacet
facet normal -0.0 -0.9238795325112872 0.3826834323650888
  outer loop
    vertex 19000.000000000004 28598.076211353313 6000.0
    vertex 23000.0 28897.7774788672 6723.542864692437
    vertex 19000.000000000004 28897.7774788672 6723.542864692437
  endloop
endfacet
facet normal -0.0 0.13052619222005224 -0.9914448613738105
  outer loop
    vertex 23000.0 25999.999999999996 10499.999999999998
    vertex 19000.000000000004 25223.54286469243 10397.777478867203
    vertex 19000.000000000004 25999.999999999996 10499.999999999998
  endloop
endfacet
facet normal -0.0 0.13052619222005224 -0.9914448613738105
  outer loop
    vertex 19000.000000000004 25223.54286469243 10397.777478867203
    vertex 23000.0 25999.999999999996 10499.999999999998
    vertex 23000.0 25223.54286469243 10397.777478867203
  endloop
endfacet
facet normal -0.0 0.6087614290087203 -0.7933533402912355
  outer loop
    vertex 23000.0 24499.999999999996 10098.076211353313
    vertex 19000.000000000004 23878.679656440352 9621.32034355964
    vertex 19000.000000000004 24499.999999999996 10098.076211353313
  endloop
endfacet
facet normal -0.0 0.6087614290087203 -0.7933533402912355
  outer loop
    vertex 19000.000000000004 23878.679656440352 9621.32034355964
    vertex 23000.0 24499.999999999996 10098.076211353313
    vertex 23000.0 23878.679656440352 9621.32034355964
  endloop
endfacet
facet normal 0.0 0.9914448613738105 0.13052619222005224
  outer loop
    vertex 19000.000000000004 22999.999999999996 7499.999999999999
    vertex 23000.0 23102.222521132793 6723.5428646924365
    vertex 19000.000000000004 23102.222521132793 6723.5428646924365
  endloop
endfacet
facet normal 0.0 0.9914448613738105 0.13052619222005224
  outer loop
    vertex 23000.0 23102.222521132793 6723.5428646924365
    vertex 19000.000000000004 22999.999999999996 7499.999999999999
    vertex 23000.0 22999.999999999996 7499.999999999999
  endloop
endfacet
facet normal -0.0 0.7933533402912357 -0.60876142900872
  outer loop
    vertex 19000.000000000004 23878.679656440352 9621.32034355964
    vertex 23000.0 23401.92378864668 8999.999999999998
    vertex 19000.000000000004 23401.92378864668 8999.999999999998
  endloop
endfacet
facet normal -0.0 0.7933533402912357 -0.60876142900872
  outer loop
    vertex 23000.0 23401.92378864668 8999.999999999998
    vertex 19000.000000000004 23878.679656440352 9621.32034355964
    vertex 23000.0 23878.679656440352 9621.32034355964
  endloop
endfacet
facet normal -0.0 -0.9914448613738108 0.13052619222004883
  outer loop
    vertex 23000.0 28999.999999999993 7499.999999999999
    vertex 19000.000000000004 28897.7774788672 6723.542864692437
    vertex 23000.0 28897.7774788672 6723.542864692437
  endloop
endfacet
facet normal -0.0 -0.9914448613738108 0.13052619222004883
  outer loop
    vertex 19000.000000000004 28897.7774788672 6723.542864692437
    vertex 23000.0 28999.999999999993 7499.999999999999
    vertex 19000.000000000004 28999.999999999993 7499.999999999999
  endloop
endfacet
facet normal -0.0 -0.38268343236508945 -0.923879532511287
  outer loop
    vertex 4000.0 27499.999999999996 10098.076211353316
    vertex -1.4438228390645235e-12 26776.45713530756 10397.777478867205
    vertex -1.4438228390645235e-12 27499.999999999996 10098.076211353316
  endloop
endfacet
facet normal -0.0 -0.38268343236508945 -0.923879532511287
  outer loop
    vertex -1.4438228390645235e-12 26776.45713530756 10397.777478867205
    vertex 4000.0 27499.999999999996 10098.076211353316
    vertex 4000.0 26776.45713530756 10397.777478867205
  endloop
endfacet
facet normal 0.0 0.0 -1.0
  outer loop
    vertex 23000.0 30999.999999999996 0.0
    vertex 19000.0 18999.999999999996 0.0
    vertex 19000.0 30999.999999999996 0.0
  endloop
endfacet
facet normal 0.0 0.0 -1.0
  outer loop
    vertex 19000.0 18999.999999999996 0.0
    vertex 23000.0 30999.999999999996 0.0
    vertex 19000.0 14999.999999999998 0.0
  endloop
endfacet
facet normal 0.0 0.0 -1.0
  outer loop
    vertex 19000.0 14999.999999999998 0.0
    vertex 23000.0 30999.999999999996 0.0
    vertex 19000.0 0.0 0.0
  endloop
endfacet
facet normal 0.0 0.0 -1.0
  outer loop
    vertex 19000.0 0.0 0.0
    vertex 23000.0 30999.999999999996 0.0
    vertex 23000.0 0.0 0.0
  endloop
endfacet
facet normal 0.0 0.0 -1.0
  outer loop
    vertex 19000.0 18999.999999999996 0.0
    vertex 4000.0 14999.999999999998 0.0
    vertex 4000.0 18999.999999999996 0.0
  endloop
endfacet
facet normal 0.0 0.0 -1.0
  outer loop
    vertex 4000.0 14999.999999999998 0.0
    vertex 19000.0 18999.999999999996 0.0
    vertex 19000.0 14999.999999999998 0.0
  endloop
endfacet
facet normal 0.0 0.0 -1.0
  outer loop
    vertex 4000.0 35000.0 0.0
    vertex 0.0 0.0 0.0
    vertex 0.0 35000.0 0.0
  endloop
endfacet
facet normal 0.0 0.0 -1.0
  outer loop
    vertex 0.0 0.0 0.0
    vertex 4000.0 35000.0 0.0
    vertex 4000.0 0.0 0.0
  endloop
endfacet
facet normal 0.0 0.0 -1.0
  outer loop
    vertex 4000.0 0.0 0.0
    vertex 4000.0 35000.0 0.0
    vertex 4000.0 18999.999999999996 0.0
  endloop
endfacet
facet normal 0.0 0.0 -1.0
  outer loop
    vertex 4000.0 0.0 0.0
    vertex 4000.0 18999.999999999996 0.0
    vertex 4000.0 14999.999999999998 0.0
  endloop
endfacet
facet normal -0.0 -0.0 1.0
  outer loop
    vertex 23000.0 0.0 14999.999999999998
    vertex 19000.0 14999.999999999998 14999.999999999998
    vertex 19000.0 0.0 14999.999999999998
  endloop
endfacet
facet normal -0.0 -0.0 1.0
  outer loop
    vertex 19000.0 14999.999999999998 14999.999999999998
    vertex 23000.0 0.0 14999.999999999998
    vertex 19000.0 18999.999999999996 14999.999999999998
  endloop
endfacet
facet normal -0.0 -0.0 1.0
  outer loop
    vertex 19000.0 18999.999999999996 14999.999999999998
    vertex 23000.0 0.0 14999.999999999998
    vertex 19000.0 30999.999999999996 14999.999999999998
  endloop
endfacet
facet normal -0.0 -0.0 1.0
  outer loop
    vertex 19000.0 30999.999999999996 14999.999999999998
    vertex 23000.0 0.0 14999.999999999998
    vertex 23000.0 30999.999999999996 14999.999999999998
  endloop
endfacet
facet normal -0.0 -0.0 1.0
  outer loop
    vertex 19000.0 14999.999999999998 14999.999999999998
    vertex 4000.0 18999.999999999996 14999.999999999998
    vertex 4000.0 14999.999999999998 14999.999999999998
  endloop
endfacet
facet normal -0.0 -0.0 1.0
  outer loop
    vertex 4000.0 18999.999999999996 14999.999999999998
    vertex 19000.0 14999.999999999998 14999.999999999998
    vertex 19000.0 18999.999999999996 14999.999999999998
  endloop
endfacet
facet normal -0.0 -0.0 1.0
  outer loop
    vertex 4000.0 0.0 14999.999999999998
    vertex 0.0 35000.0 14999.999999999998
    vertex 0.0 0.0 14999.999999999998
  endloop
endfacet
facet normal -0.0 -0.0 1.0
  outer loop
    vertex 0.0 35000.0 14999.999999999998
    vertex 4000.0 0.0 14999.999999999998
    vertex 4000.0 35000.0 14999.999999999998
  endloop
endfacet
facet normal -0.0 -0.0 1.0
  outer loop
    vertex 4000.0 35000.0 14999.999999999998
    vertex 4000.0 0.0 14999.999999999998
    vertex 4000.0 14999.999999999998 14999.999999999998
  endloop
endfacet
facet normal -0.0 -0.0 1.0
  outer loop
    vertex 4000.0 35000.0 14999.999999999998
    vertex 4000.0 14999.999999999998 14999.999999999998
    vertex 4000.0 18999.999999999996 14999.999999999998
  endloop
endfacet
facet normal 0.0 1.0 0.0
  outer loop
    vertex 19000.0 30999.999999999996 14999.999999999998
    vertex 23000.0 30999.999999999996 0.0
    vertex 19000.0 30999.999999999996 0.0
  endloop
endfacet
facet normal 0.0 1.0 0.0
  outer loop
    vertex 23000.0 30999.999999999996 0.0
    vertex 19000.0 30999.999999999996 14999.999999999998
    vertex 23000.0 30999.999999999996 14999.999999999998
  endloop
endfacet
facet normal -0.0 1.0 0.0
  outer loop
    vertex 4000.0 18999.999999999996 14999.999999999998
    vertex 19000.0 18999.999999999996 0.0
    vertex 4000.0 18999.999999999996 0.0
  endloop
endfacet
facet normal -0.0 1.0 0.0
  outer loop
    vertex 19000.0 18999.999999999996 0.0
    vertex 4000.0 18999.999999999996 14999.999999999998
    vertex 19000.0 18999.999999999996 14999.999999999998
  endloop
endfacet
facet normal -1.0 0.0 0.0
  outer loop
    vertex 19000.0 18999.999999999996 14999.999999999998
    vertex 19000.000000000004 23401.92378864668 8999.999999999998
    vertex 19000.0 18999.999999999996 0.0
  endloop
endfacet
facet normal -1.0 0.0 0.0
  outer loop
    vertex 19000.000000000004 23401.92378864668 8999.999999999998
    vertex 19000.0 18999.999999999996 14999.999999999998
    vertex 19000.000000000004 23878.679656440352 9621.32034355964
  endloop
endfacet
facet normal -1.0 0.0 0.0
  outer loop
    vertex 19000.000000000004 23878.679656440352 9621.32034355964
    vertex 19000.0 18999.999999999996 14999.999999999998
    vertex 19000.000000000004 24499.999999999996 10098.076211353313
  endloop
endfacet
facet normal -1.0 0.0 0.0
  outer loop
    vertex 19000.000000000004 24499.999999999996 10098.076211353313
    vertex 19000.0 18999.999999999996 14999.999999999998
    vertex 19000.0 30999.999999999996 14999.999999999998
  endloop
endfacet
facet normal -1.0 0.0 0.0
  outer loop
    vertex 19000.0 18999.999999999996 0.0
    vertex 19000.000000000004 23401.92378864668 8999.999999999998
    vertex 19000.000000000004 23102.222521132793 8276.457135307559
  endloop
endfacet
facet normal -1.0 0.0 0.0
  outer loop
    vertex 19000.0 18999.999999999996 0.0
    vertex 19000.000000000004 23102.222521132793 8276.457135307559
    vertex 19000.000000000004 22999.999999999996 7499.999999999999
  endloop
endfacet
facet normal -1.0 0.0 0.0
  outer loop
    vertex 19000.000000000004 24499.999999999996 10098.076211353313
    vertex 19000.0 30999.999999999996 14999.999999999998
    vertex 19000.000000000004 25223.54286469243 10397.777478867203
  endloop
endfacet
facet normal -1.0 0.0 0.0
  outer loop
    vertex 19000.000000000004 25223.54286469243 10397.777478867203
    vertex 19000.0 30999.999999999996 14999.999999999998
    vertex 19000.000000000004 25999.999999999996 10499.999999999998
  endloop
endfacet
facet normal -1.0 0.0 0.0
  outer loop
    vertex 19000.000000000004 25999.999999999996 10499.999999999998
    vertex 19000.0 30999.999999999996 14999.999999999998
    vertex 19000.000000000004 26776.45713530756 10397.777478867205
  endloop
endfacet
facet normal -1.0 0.0 0.0
  outer loop
    vertex 19000.000000000004 26776.45713530756 10397.777478867205
    vertex 19000.0 30999.999999999996 14999.999999999998
    vertex 19000.000000000004 27499.999999999996 10098.076211353316
  endloop
endfacet
facet normal -1.0 0.0 0.0
  outer loop
    vertex 19000.000000000004 27499.999999999996 10098.076211353316
    vertex 19000.0 30999.999999999996 14999.999999999998
    vertex 19000.000000000004 28121.320343559637 9621.32034355964
  endloop
endfacet
facet normal -1.0 0.0 0.0
  outer loop
    vertex 19000.000000000004 28121.320343559637 9621.32034355964
    vertex 19000.0 30999.999999999996 14999.999999999998
    vertex 19000.000000000004 28598.07621135331 9000.0
  endloop
endfacet
facet normal -1.0 0.0 0.0
  outer loop
    vertex 19000.000000000004 28598.07621135331 9000.0
    vertex 19000.0 30999.999999999996 14999.999999999998
    vertex 19000.000000000004 28897.7774788672 8276.457135307564
  endloop
endfacet
facet normal -1.0 0.0 0.0
  outer loop
    vertex 19000.000000000004 28897.7774788672 8276.457135307564
    vertex 19000.0 30999.999999999996 14999.999999999998
    vertex 19000.000000000004 28999.999999999993 7499.999999999999
  endloop
endfacet
facet normal -1.0 0.0 0.0
  outer loop
    vertex 19000.0 18999.999999999996 0.0
    vertex 19000.000000000004 24499.999999999996 4901.923788646684
    vertex 19000.0 30999.999999999996 0.0
  endloop
endfacet
facet normal -1.0 0.0 0.0
  outer loop
    vertex 19000.000000000004 24499.999999999996 4901.923788646684
    vertex 19000.0 18999.999999999996 0.0
    vertex 19000.000000000004 23878.679656440352 5378.679656440358
  endloop
endfacet
facet normal -1.0 0.0 0.0
  outer loop
    vertex 19000.000000000004 23878.679656440352 5378.679656440358
    vertex 19000.0 18999.999999999996 0.0
    vertex 19000.000000000004 23401.92378864668 5999.999999999998
  endloop
endfacet
facet normal -1.0 0.0 0.0
  outer loop
    vertex 19000.000000000004 23401.92378864668 5999.999999999998
    vertex 19000.0 18999.999999999996 0.0
    vertex 19000.000000000004 23102.222521132793 6723.5428646924365
  endloop
endfacet
facet normal -1.0 0.0 0.0
  outer loop
    vertex 19000.000000000004 23102.222521132793 6723.5428646924365
    vertex 19000.0 18999.999999999996 0.0
    vertex 19000.000000000004 22999.999999999996 7499.999999999999
  endloop
endfacet
facet normal -1.0 0.0 0.0
  outer loop
    vertex 19000.0 30999.999999999996 0.0
    vertex 19000.000000000004 24499.999999999996 4901.923788646684
    vertex 19000.000000000004 25223.54286469243 4602.222521132795
  endloop
endfacet
facet normal -1.0 0.0 0.0
  outer loop
    vertex 19000.0 30999.999999999996 0.0
    vertex 19000.000000000004 25223.54286469243 4602.222521132795
    vertex 19000.000000000004 25999.999999999996 4500.0
  endloop
endfacet
facet normal -1.0 0.0 0.0
  outer loop
    vertex 19000.0 30999.999999999996 0.0
    vertex 19000.000000000004 25999.999999999996 4500.0
    vertex 19000.000000000004 26776.45713530756 4602.222521132796
  endloop
endfacet
facet normal -1.0 0.0 0.0
  outer loop
    vertex 19000.0 30999.999999999996 0.0
    vertex 19000.000000000004 26776.45713530756 4602.222521132796
    vertex 19000.000000000004 27499.999999999996 4901.923788646684
  endloop
endfacet
facet normal -1.0 0.0 0.0
  outer loop
    vertex 19000.0 30999.999999999996 0.0
    vertex 19000.000000000004 27499.999999999996 4901.923788646684
    vertex 19000.000000000004 28121.320343559637 5378.679656440358
  endloop
endfacet
facet normal -1.0 0.0 0.0
  outer loop
    vertex 19000.0 30999.999999999996 0.0
    vertex 19000.000000000004 28121.320343559637 5378.679656440358
    vertex 19000.000000000004 28598.076211353313 6000.0
  endloop
endfacet
facet normal -1.0 0.0 0.0
  outer loop
    vertex 19000.0 30999.999999999996 0.0
    vertex 19000.000000000004 28598.076211353313 6000.0
    vertex 19000.000000000004 28897.7774788672 6723.542864692437
  endloop
endfacet
facet normal -1.0 0.0 0.0
  outer loop
    vertex 19000.0 30999.999999999996 0.0
    vertex 19000.000000000004 28897.7774788672 6723.542864692437
    vertex 19000.000000000004 28999.999999999993 7499.999999999999
  endloop
endfacet
facet normal -1.0 0.0 0.0
  outer loop
    vertex 19000.0 30999.999999999996 0.0
    vertex 19000.000000000004 28999.999999999993 7499.999999999999
    vertex 19000.0 30999.999999999996 14999.999999999998
  endloop
endfacet
facet normal 1.0 -0.0 -0.0
  outer loop
    vertex 23000.0 30999.999999999996 0.0
    vertex 23000.0 0.0 14999.999999999998
    vertex 23000.0 0.0 0.0
  endloop
endfacet
facet normal 1.0 -0.0 -0.0
  outer loop
    vertex 23000.0 0.0 14999.999999999998
    vertex 23000.0 30999.999999999996 0.0
    vertex 23000.0 24499.999999999996 4901.923788646684
  endloop
endfacet
facet normal 1.0 -0.0 -0.0
  outer loop
    vertex 23000.0 0.0 14999.999999999998
    vertex 23000.0 24499.999999999996 4901.923788646684
    vertex 23000.0 23878.679656440352 5378.679656440358
  endloop
endfacet
facet normal 1.0 -0.0 -0.0
  outer loop
    vertex 23000.0 0.0 14999.999999999998
    vertex 23000.0 23878.679656440352 5378.679656440358
    vertex 23000.0 23401.92378864668 5999.999999999998
  endloop
endfacet
facet normal 1.0 -0.0 -0.0
  outer loop
    vertex 23000.0 0.0 14999.999999999998
    vertex 23000.0 23401.92378864668 5999.999999999998
    vertex 23000.0 23102.222521132793 6723.5428646924365
  endloop
endfacet
facet normal 1.0 -0.0 -0.0
  outer loop
    vertex 23000.0 0.0 14999.999999999998
    vertex 23000.0 23102.222521132793 6723.5428646924365
    vertex 23000.0 22999.999999999996 7499.999999999999
  endloop
endfacet
facet normal 1.0 -0.0 -0.0
  outer loop
    vertex 23000.0 24499.999999999996 4901.923788646684
    vertex 23000.0 30999.999999999996 0.0
    vertex 23000.0 25223.54286469243 4602.222521132795
  endloop
endfacet
facet normal 1.0 -0.0 -0.0
  outer loop
    vertex 23000.0 25223.54286469243 4602.222521132795
    vertex 23000.0 30999.999999999996 0.0
    vertex 23000.0 25999.999999999996 4500.0
  endloop
endfacet
facet normal 1.0 -0.0 -0.0
  outer loop
    vertex 23000.0 25999.999999999996 4500.0
    vertex 23000.0 30999.999999999996 0.0
    vertex 23000.0 26776.45713530756 4602.222521132796
  endloop
endfacet
facet normal 1.0 -0.0 -0.0
  outer loop
    vertex 23000.0 26776.45713530756 4602.222521132796
    vertex 23000.0 30999.999999999996 0.0
    vertex 23000.0 27499.999999999996 4901.923788646684
  endloop
endfacet
facet normal 1.0 -0.0 -0.0
  outer loop
    vertex 23000.0 27499.999999999996 4901.923788646684
    vertex 23000.0 30999.999999999996 0.0
    vertex 23000.0 28121.320343559637 5378.679656440358
  endloop
endfacet
facet normal 1.0 -0.0 -0.0
  outer loop
    vertex 23000.0 28121.320343559637 5378.679656440358
    vertex 23000.0 30999.999999999996 0.0
    vertex 23000.0 28598.076211353313 6000.0
  endloop
endfacet
facet normal 1.0 -0.0 -0.0
  outer loop
    vertex 23000.0 28598.076211353313 6000.0
    vertex 23000.0 30999.999999999996 0.0
    vertex 23000.0 28897.7774788672 6723.542864692437
  endloop
endfacet
facet normal 1.0 -0.0 -0.0
  outer loop
    vertex 23000.0 28897.7774788672 6723.542864692437
    vertex 23000.0 30999.999999999996 0.0
    vertex 23000.0 28999.999999999993 7499.999999999999
  endloop
endfacet
facet normal 1.0 -0.0 -0.0
  outer loop
    vertex 23000.0 0.0 14999.999999999998
    vertex 23000.0 24499.999999999996 10098.076211353313
    vertex 23000.0 30999.999999999996 14999.999999999998
  endloop
endfacet
facet normal 1.0 -0.0 -0.0
  outer loop
    vertex 23000.0 24499.999999999996 10098.076211353313
    vertex 23000.0 0.0 14999.999999999998
    vertex 23000.0 23878.679656440352 9621.32034355964
  endloop
endfacet
facet normal 1.0 -0.0 -0.0
  outer loop
    vertex 23000.0 23878.679656440352 9621.32034355964
    vertex 23000.0 0.0 14999.999999999998
    vertex 23000.0 23401.92378864668 8999.999999999998
  endloop
endfacet
facet normal 1.0 -0.0 -0.0
  outer loop
    vertex 23000.0 23401.92378864668 8999.999999999998
    vertex 23000.0 0.0 14999.999999999998
    vertex 23000.0 23102.222521132793 8276.457135307559
  endloop
endfacet
facet normal 1.0 -0.0 -0.0
  outer loop
    vertex 23000.0 23102.222521132793 8276.457135307559
    vertex 23000.0 0.0 14999.999999999998
    vertex 23000.0 22999.999999999996 7499.999999999999
  endloop
endfacet
facet normal 1.0 -0.0 -0.0
  outer loop
    vertex 23000.0 30999.999999999996 14999.999999999998
    vertex 23000.0 24499.999999999996 10098.076211353313
    vertex 23000.0 25223.54286469243 10397.777478867203
  endloop
endfacet
facet normal 1.0 -0.0 -0.0
  outer loop
    vertex 23000.0 30999.999999999996 14999.999999999998
    vertex 23000.0 25223.54286469243 10397.777478867203
    vertex 23000.0 25999.999999999996 10499.999999999998
  endloop
endfacet
facet normal 1.0 -0.0 -0.0
  outer loop
    vertex 23000.0 30999.999999999996 14999.999999999998
    vertex 23000.0 25999.999999999996 10499.999999999998
    vertex 23000.0 26776.45713530756 10397.777478867205
  endloop
endfacet
facet normal 1.0 -0.0 -0.0
  outer loop
    vertex 23000.0 30999.999999999996 14999.999999999998
    vertex 23000.0 26776.45713530756 10397.777478867205
    vertex 23000.0 27499.999999999996 10098.076211353316
  endloop
endfacet
facet normal 1.0 -0.0 -0.0
  outer loop
    vertex 23000.0 30999.999999999996 14999.999999999998
    vertex 23000.0 27499.999999999996 10098.076211353316
    vertex 23000.0 28121.320343559637 9621.32034355964
  endloop
endfacet
facet normal 1.0 -0.0 -0.0
  outer loop
    vertex 23000.0 30999.999999999996 14999.999999999998
    vertex 23000.0 28121.320343559637 9621.32034355964
    vertex 23000.0 28598.07621135331 9000.0
  endloop
endfacet
facet normal 1.0 -0.0 -0.0
  outer loop
    vertex 23000.0 30999.999999999996 14999.999999999998
    vertex 23000.0 28598.07621135331 9000.0
    vertex 23000.0 28897.7774788672 8276.457135307564
  endloop
endfacet
facet normal 1.0 -0.0 -0.0
  outer loop
    vertex 23000.0 30999.999999999996 14999.999999999998
    vertex 23000.0 28897.7774788672 8276.457135307564
    vertex 23000.0 28999.999999999993 7499.999999999999
  endloop
endfacet
facet normal 1.0 -0.0 -0.0
  outer loop
    vertex 23000.0 30999.999999999996 14999.999999999998
    vertex 23000.0 28999.999999999993 7499.999999999999
    vertex 23000.0 30999.999999999996 0.0
  endloop
endfacet
facet normal 0.0 1.0 0.0
  outer loop
    vertex 0.0 35000.0 14999.999999999998
    vertex 4000.0 35000.0 0.0
    vertex 0.0 35000.0 0.0
  endloop
endfacet
facet normal 0.0 1.0 0.0
  outer loop
    vertex 4000.0 35000.0 0.0
    vertex 0.0 35000.0 14999.999999999998
    vertex 4000.0 35000.0 14999.999999999998
  endloop
endfacet
facet normal -0.0 -1.0 -0.0
  outer loop
    vertex 23000.0 0.0 14999.999999999998
    vertex 19000.0 0.0 0.0
    vertex 23000.0 0.0 0.0
  endloop
endfacet
facet normal -0.0 -1.0 -0.0
  outer loop
    vertex 19000.0 0.0 0.0
    vertex 23000.0 0.0 14999.999999999998
    vertex 19000.0 0.0 14999.999999999998
  endloop
endfacet
facet normal 1.0 0.0 0.0
  outer loop
    vertex 4000.0 14999.999999999998 0.0
    vertex 4000.0 0.0 14999.999999999998
    vertex 4000.0 0.0 0.0
  endloop
endfacet
facet normal 1.0 0.0 0.0
  outer loop
    vertex 4000.0 0.0 14999.999999999998
    vertex 4000.0 14999.999999999998 0.0
    vertex 4000.0 14999.999999999998 14999.999999999998
  endloop
endfacet
facet normal 1.0 -0.0 -0.0
  outer loop
    vertex 4000.0 18999.999999999996 0.0
    vertex 4000.0 23401.92378864668 5999.999999999998
    vertex 4000.0 18999.999999999996 14999.999999999998
  endloop
endfacet
facet normal 1.0 -0.0 -0.0
  outer loop
    vertex 4000.0 23401.92378864668 5999.999999999998
    vertex 4000.0 18999.999999999996 0.0
    vertex 4000.0 23878.679656440352 5378.679656440358
  endloop
endfacet
facet normal 1.0 -0.0 -0.0
  outer loop
    vertex 4000.0 23878.679656440352 5378.679656440358
    vertex 4000.0 18999.999999999996 0.0
    vertex 4000.0 24499.999999999996 4901.923788646684
  endloop
endfacet
facet normal 1.0 -0.0 -0.0
  outer loop
    vertex 4000.0 24499.999999999996 4901.923788646684
    vertex 4000.0 18999.999999999996 0.0
    vertex 4000.0 35000.0 0.0
  endloop
endfacet
facet normal 1.0 -0.0 -0.0
  outer loop
    vertex 4000.0 18999.999999999996 14999.999999999998
    vertex 4000.0 23401.92378864668 5999.999999999998
    vertex 4000.0 23102.222521132793 6723.5428646924365
  endloop
endfacet
facet normal 1.0 -0.0 -0.0
  outer loop
    vertex 4000.0 18999.999999999996 14999.999999999998
    vertex 4000.0 23102.222521132793 6723.5428646924365
    vertex 4000.0 22999.999999999996 7499.999999999999
  endloop
endfacet
facet normal 1.0 -0.0 -0.0
  outer loop
    vertex 4000.0 24499.999999999996 4901.923788646684
    vertex 4000.0 35000.0 0.0
    vertex 4000.0 25223.54286469243 4602.222521132795
  endloop
endfacet
facet normal 1.0 -0.0 -0.0
  outer loop
    vertex 4000.0 25223.54286469243 4602.222521132795
    vertex 4000.0 35000.0 0.0
    vertex 4000.0 25999.999999999996 4500.0
  endloop
endfacet
facet normal 1.0 -0.0 -0.0
  outer loop
    vertex 4000.0 25999.999999999996 4500.0
    vertex 4000.0 35000.0 0.0
    vertex 4000.0 26776.45713530756 4602.222521132796
  endloop
endfacet
facet normal 1.0 -0.0 -0.0
  outer loop
    vertex 4000.0 26776.45713530756 4602.222521132796
    vertex 4000.0 35000.0 0.0
    vertex 4000.0 27499.999999999996 4901.923788646684
  endloop
endfacet
facet normal 1.0 -0.0 -0.0
  outer loop
    vertex 4000.0 27499.999999999996 4901.923788646684
    vertex 4000.0 35000.0 0.0
    vertex 4000.0 28121.320343559637 5378.679656440358
  endloop
endfacet
facet normal 1.0 -0.0 -0.0
  outer loop
    vertex 4000.0 28121.320343559637 5378.679656440358
    vertex 4000.0 35000.0 0.0
    vertex 4000.0 28598.076211353313 6000.0
  endloop
endfacet
facet normal 1.0 -0.0 -0.0
  outer loop
    vertex 4000.0 28598.076211353313 6000.0
    vertex 4000.0 35000.0 0.0
    vertex 4000.0 28897.7774788672 6723.542864692437
  endloop
endfacet
facet normal 1.0 -0.0 -0.0
  outer loop
    vertex 4000.0 28897.7774788672 6723.542864692437
    vertex 4000.0 35000.0 0.0
    vertex 4000.0 28999.999999999993 7499.999999999999
  endloop
endfacet
facet normal 1.0 -0.0 -0.0
  outer loop
    vertex 4000.0 18999.999999999996 14999.999999999998
    vertex 4000.0 24499.999999999996 10098.076211353313
    vertex 4000.0 35000.0 14999.999999999998
  endloop
endfacet
facet normal 1.0 -0.0 -0.0
  outer loop
    vertex 4000.0 24499.999999999996 10098.076211353313
    vertex 4000.0 18999.999999999996 14999.999999999998
    vertex 4000.0 23878.679656440352 9621.32034355964
  endloop
endfacet
facet normal 1.0 -0.0 -0.0
  outer loop
    vertex 4000.0 23878.679656440352 9621.32034355964
    vertex 4000.0 18999.999999999996 14999.999999999998
    vertex 4000.0 23401.92378864668 8999.999999999998
  endloop
endfacet
facet normal 1.0 -0.0 -0.0
  outer loop
    vertex 4000.0 23401.92378864668 8999.999999999998
    vertex 4000.0 18999.999999999996 14999.999999999998
    vertex 4000.0 23102.222521132793 8276.457135307559
  endloop
endfacet
facet normal 1.0 -0.0 -0.0
  outer loop
    vertex 4000.0 23102.222521132793 8276.457135307559
    vertex 4000.0 18999.999999999996 14999.999999999998
    vertex 4000.0 22999.999999999996 7499.999999999999
  endloop
endfacet
facet normal 1.0 -0.0 -0.0
  outer loop
    vertex 4000.0 35000.0 14999.999999999998
    vertex 4000.0 24499.999999999996 10098.076211353313
    vertex 4000.0 25223.54286469243 10397.777478867203
  endloop
endfacet
facet normal 1.0 -0.0 -0.0
  outer loop
    vertex 4000.0 35000.0 14999.999999999998
    vertex 4000.0 25223.54286469243 10397.777478867203
    vertex 4000.0 25999.999999999996 10499.999999999998
  endloop
endfacet
facet normal 1.0 -0.0 -0.0
  outer loop
    vertex 4000.0 35000.0 14999.999999999998
    vertex 4000.0 25999.999999999996 10499.999999999998
    vertex 4000.0 26776.45713530756 10397.777478867205
  endloop
endfacet
facet normal 1.0 -0.0 -0.0
  outer loop
    vertex 4000.0 35000.0 14999.999999999998
    vertex 4000.0 26776.45713530756 10397.777478867205
    vertex 4000.0 27499.999999999996 10098.076211353316
  endloop
endfacet
facet normal 1.0 -0.0 -0.0
  outer loop
    vertex 4000.0 35000.0 14999.999999999998
    vertex 4000.0 27499.999999999996 10098.076211353316
    vertex 4000.0 28121.320343559637 9621.32034355964
  endloop
endfacet
facet normal 1.0 -0.0 -0.0
  outer loop
    vertex 4000.0 35000.0 14999.999999999998
    vertex 4000.0 28121.320343559637 9621.32034355964
    vertex 4000.0 28598.07621135331 9000.0
  endloop
endfacet
facet normal 1.0 -0.0 -0.0
  outer loop
    vertex 4000.0 35000.0 14999.999999999998
    vertex 4000.0 28598.07621135331 9000.0
    vertex 4000.0 28897.7774788672 8276.457135307564
  endloop
endfacet
facet normal 1.0 -0.0 -0.0
  outer loop
    vertex 4000.0 35000.0 14999.999999999998
    vertex 4000.0 28897.7774788672 8276.457135307564
    vertex 4000.0 28999.999999999993 7499.999999999999
  endloop
endfacet
facet normal 1.0 -0.0 -0.0
  outer loop
    vertex 4000.0 35000.0 14999.999999999998
    vertex 4000.0 28999.999999999993 7499.999999999999
    vertex 4000.0 35000.0 0.0
  endloop
endfacet
facet normal -1.0 0.0 0.0
  outer loop
    vertex 0.0 35000.0 14999.999999999998
    vertex 0.0 0.0 0.0
    vertex 0.0 0.0 14999.999999999998
  endloop
endfacet
facet normal -1.0 0.0 0.0
  outer loop
    vertex 0.0 0.0 0.0
    vertex 0.0 35000.0 14999.999999999998
    vertex -1.4438228390645235e-12 24499.999999999996 10098.076211353313
  endloop
endfacet
facet normal -1.0 0.0 0.0
  outer loop
    vertex 0.0 0.0 0.0
    vertex -1.4438228390645235e-12 24499.999999999996 10098.076211353313
    vertex -1.4438228390645235e-12 23878.679656440352 9621.32034355964
  endloop
endfacet
facet normal -1.0 0.0 0.0
  outer loop
    vertex 0.0 0.0 0.0
    vertex -1.4438228390645235e-12 23878.679656440352 9621.32034355964
    vertex -1.4438228390645235e-12 23401.92378864668 8999.999999999998
  endloop
endfacet
facet normal -1.0 0.0 0.0
  outer loop
    vertex 0.0 0.0 0.0
    vertex -1.4438228390645235e-12 23401.92378864668 8999.999999999998
    vertex -1.4438228390645235e-12 23102.222521132793 8276.457135307559
  endloop
endfacet
facet normal -1.0 0.0 0.0
  outer loop
    vertex 0.0 0.0 0.0
    vertex -1.4438228390645235e-12 23102.222521132793 8276.457135307559
    vertex -1.4438228390645235e-12 22999.999999999996 7499.999999999999
  endloop
endfacet
facet normal -1.0 0.0 0.0
  outer loop
    vertex -1.4438228390645235e-12 24499.999999999996 10098.076211353313
    vertex 0.0 35000.0 14999.999999999998
    vertex -1.4438228390645235e-12 25223.54286469243 10397.777478867203
  endloop
endfacet
facet normal -1.0 0.0 0.0
  outer loop
    vertex -1.4438228390645235e-12 25223.54286469243 10397.777478867203
    vertex 0.0 35000.0 14999.999999999998
    vertex -1.4438228390645235e-12 25999.999999999996 10499.999999999998
  endloop
endfacet
facet normal -1.0 0.0 0.0
  outer loop
    vertex -1.4438228390645235e-12 25999.999999999996 10499.999999999998
    vertex 0.0 35000.0 14999.999999999998
    vertex -1.4438228390645235e-12 26776.45713530756 10397.777478867205
  endloop
endfacet
facet normal -1.0 0.0 0.0
  outer loop
    vertex -1.4438228390645235e-12 26776.45713530756 10397.777478867205
    vertex 0.0 35000.0 14999.999999999998
    vertex -1.4438228390645235e-12 27499.999999999996 10098.076211353316
  endloop
endfacet
facet normal -1.0 0.0 0.0
  outer loop
    vertex -1.4438228390645235e-12 27499.999999999996 10098.076211353316
    vertex 0.0 35000.0 14999.999999999998
    vertex -1.4438228390645235e-12 28121.320343559637 9621.32034355964
  endloop
endfacet
facet normal -1.0 0.0 0.0
  outer loop
    vertex -1.4438228390645235e-12 28121.320343559637 9621.32034355964
    vertex 0.0 35000.0 14999.999999999998
    vertex -1.4438228390645235e-12 28598.07621135331 9000.0
  endloop
endfacet
facet normal -1.0 0.0 0.0
  outer loop
    vertex -1.4438228390645235e-12 28598.07621135331 9000.0
    vertex 0.0 35000.0 14999.999999999998
    vertex -1.4438228390645235e-12 28897.7774788672 8276.457135307564
  endloop
endfacet
facet normal -1.0 0.0 0.0
  outer loop
    vertex -1.4438228390645235e-12 28897.7774788672 8276.457135307564
    vertex 0.0 35000.0 14999.999999999998
    vertex -1.4438228390645235e-12 28999.999999999993 7499.999999999999
  endloop
endfacet
facet normal -1.0 0.0 0.0
  outer loop
    vertex 0.0 0.0 0.0
    vertex -1.4438228390645235e-12 24499.999999999996 4901.923788646684
    vertex 0.0 35000.0 0.0
  endloop
endfacet
facet normal -1.0 0.0 0.0
  outer loop
    vertex -1.4438228390645235e-12 24499.999999999996 4901.923788646684
    vertex 0.0 0.0 0.0
    vertex -1.4438228390645235e-12 23878.679656440352 5378.679656440358
  endloop
endfacet
facet normal -1.0 0.0 0.0
  outer loop
    vertex -1.4438228390645235e-12 23878.679656440352 5378.679656440358
    vertex 0.0 0.0 0.0
    vertex -1.4438228390645235e-12 23401.92378864668 5999.999999999998
  endloop
endfacet
facet normal -1.0 0.0 0.0
  outer loop
    vertex -1.4438228390645235e-12 23401.92378864668 5999.999999999998
    vertex 0.0 0.0 0.0
    vertex -1.4438228390645235e-12 23102.222521132793 6723.5428646924365
  endloop
endfacet
facet normal -1.0 0.0 0.0
  outer loop
    vertex -1.4438228390645235e-12 23102.222521132793 6723.5428646924365
    vertex 0.0 0.0 0.0
    vertex -1.4438228390645235e-12 22999.999999999996 7499.999999999999
  endloop
endfacet
facet normal -1.0 0.0 0.0
  outer loop
    vertex 0.0 35000.0 0.0
    vertex -1.4438228390645235e-12 24499.999999999996 4901.923788646684
    vertex -1.4438228390645235e-12 25223.54286469243 4602.222521132795
  endloop
endfacet
facet normal -1.0 0.0 0.0
  outer loop
    vertex 0.0 35000.0 0.0
    vertex -1.4438228390645235e-12 25223.54286469243 4602.222521132795
    vertex -1.4438228390645235e-12 25999.999999999996 4500.0
  endloop
endfacet
facet normal -1.0 0.0 0.0
  outer loop
    vertex 0.0 35000.0 0.0
    vertex -1.4438228390645235e-12 25999.999999999996 4500.0
    vertex -1.4438228390645235e-12 26776.45713530756 4602.222521132796
  endloop
endfacet
facet normal -1.0 0.0 0.0
  outer loop
    vertex 0.0 35000.0 0.0
    vertex -1.4438228390645235e-12 26776.45713530756 4602.222521132796
    vertex -1.4438228390645235e-12 27499.999999999996 4901.923788646684
  endloop
endfacet
facet normal -1.0 0.0 0.0
  outer loop
    vertex 0.0 35000.0 0.0
    vertex -1.4438228390645235e-12 27499.999999999996 4901.923788646684
    vertex -1.4438228390645235e-12 28121.320343559637 5378.679656440358
  endloop
endfacet
facet normal -1.0 0.0 0.0
  outer loop
    vertex 0.0 35000.0 0.0
    vertex -1.4438228390645235e-12 28121.320343559637 5378.679656440358
    vertex -1.4438228390645235e-12 28598.076211353313 6000.0
  endloop
endfacet
facet normal -1.0 0.0 0.0
  outer loop
    vertex 0.0 35000.0 0.0
    vertex -1.4438228390645235e-12 28598.076211353313 6000.0
    vertex -1.4438228390645235e-12 28897.7774788672 6723.542864692437
  endloop
endfacet
facet normal -1.0 0.0 0.0
  outer loop
    vertex 0.0 35000.0 0.0
    vertex -1.4438228390645235e-12 28897.7774788672 6723.542864692437
    vertex -1.4438228390645235e-12 28999.999999999993 7499.999999999999
  endloop
endfacet
facet normal -1.0 0.0 0.0
  outer loop
    vertex 0.0 35000.0 0.0
    vertex -1.4438228390645235e-12 28999.999999999993 7499.999999999999
    vertex 0.0 35000.0 14999.999999999998
  endloop
endfacet
facet normal -1.0 0.0 0.0
  outer loop
    vertex 19000.0 14999.999999999998 14999.999999999998
    vertex 19000.0 0.0 0.0
    vertex 19000.0 0.0 14999.999999999998
  endloop
endfacet
facet normal -1.0 0.0 0.0
  outer loop
    vertex 19000.0 0.0 0.0
    vertex 19000.0 14999.999999999998 14999.999999999998
    vertex 19000.0 14999.999999999998 0.0
  endloop
endfacet
facet normal -0.0 -1.0 -0.0
  outer loop
    vertex 19000.0 14999.999999999998 14999.999999999998
    vertex 4000.0 14999.999999999998 0.0
    vertex 19000.0 14999.999999999998 0.0
  endloop
endfacet
facet normal -0.0 -1.0 -0.0
  outer loop
    vertex 4000.0 14999.999999999998 0.0
    vertex 19000.0 14999.999999999998 14999.999999999998
    vertex 4000.0 14999.999999999998 14999.999999999998
  endloop
endfacet
facet normal -0.0 -1.0 -0.0
  outer loop
    vertex 4000.0 0.0 14999.999999999998
    vertex 0.0 0.0 0.0
    vertex 4000.0 0.0 0.0
  endloop
endfacet
facet normal -0.0 -1.0 -0.0
  outer loop
    vertex 0.0 0.0 0.0
    vertex 4000.0 0.0 14999.999999999998
    vertex 0.0 0.0 14999.999999999998
  endloop
endfacet
facet normal -0.0 0.9238795325112872 -0.3826834323650888
  outer loop
    vertex -1.4438228390645235e-12 23401.92378864668 8999.999999999998
    vertex 4000.0 23102.222521132793 8276.457135307559
    vertex -1.4438228390645235e-12 23102.222521132793 8276.457135307559
  endloop
endfacet
facet normal -0.0 0.9238795325112872 -0.3826834323650888
  outer loop
    vertex 4000.0 23102.222521132793 8276.457135307559
    vertex -1.4438228390645235e-12 23401.92378864668 8999.999999999998
    vertex 4000.0 23401.92378864668 8999.999999999998
  endloop
endfacet
facet normal -0.0 0.9914448613738103 -0.13052619222005268
  outer loop
    vertex -1.4438228390645235e-12 23102.222521132793 8276.457135307559
    vertex 4000.0 22999.999999999996 7499.999999999999
    vertex -1.4438228390645235e-12 22999.999999999996 7499.999999999999
  endloop
endfacet
facet normal -0.0 0.9914448613738103 -0.13052619222005268
  outer loop
    vertex 4000.0 22999.999999999996 7499.999999999999
    vertex -1.4438228390645235e-12 23102.222521132793 8276.457135307559
    vertex 4000.0 23102.222521132793 8276.457135307559
  endloop
endfacet
facet normal -0.0 0.6087614290087203 -0.7933533402912355
  outer loop
    vertex 4000.0 24499.999999999996 10098.076211353313
    vertex -1.4438228390645235e-12 23878.679656440352 9621.32034355964
    vertex -1.4438228390645235e-12 24499.999999999996 10098.076211353313
  endloop
endfacet
facet normal -0.0 0.6087614290087203 -0.7933533402912355
  outer loop
    vertex -1.4438228390645235e-12 23878.679656440352 9621.32034355964
    vertex 4000.0 24499.999999999996 10098.076211353313
    vertex 4000.0 23878.679656440352 9621.32034355964
  endloop
endfacet
facet normal -0.0 0.38268343236509106 -0.9238795325112864
  outer loop
    vertex 4000.0 25223.54286469243 10397.777478867203
    vertex -1.4438228390645235e-12 24499.999999999996 10098.076211353313
    vertex -1.4438228390645235e-12 25223.54286469243 10397.777478867203
  endloop
endfacet
facet normal -0.0 0.38268343236509106 -0.9238795325112864
  outer loop
    vertex -1.4438228390645235e-12 24499.999999999996 10098.076211353313
    vertex 4000.0 25223.54286469243 10397.777478867203
    vertex 4000.0 24499.999999999996 10098.076211353313
  endloop
endfacet
facet normal -0.0 0.7933533402912357 -0.60876142900872
  outer loop
    vertex -1.4438228390645235e-12 23878.679656440352 9621.32034355964
    vertex 4000.0 23401.92378864668 8999.999999999998
    vertex -1.4438228390645235e-12 23401.92378864668 8999.999999999998
  endloop
endfacet
facet normal -0.0 0.7933533402912357 -0.60876142900872
  outer loop
    vertex 4000.0 23401.92378864668 8999.999999999998
    vertex -1.4438228390645235e-12 23878.679656440352 9621.32034355964
    vertex 4000.0 23878.679656440352 9621.32034355964
  endloop
endfacet
endsolid simple-spool-bracket
